<svg xmlns="http://www.w3.org/2000/svg" viewBox="0 0 543.73 79.99"><title>logo_advisual</title><g id="Layer_2" data-name="Layer 2"><g id="Layer_1-2" data-name="Layer 1"><path d="M243.8,12.18A37.43,37.43,0,0,0,216.33.75h-18V78.53h18A37.43,37.43,0,0,0,243.8,67.1a37.4,37.4,0,0,0,11.37-27.47A37.4,37.4,0,0,0,243.8,12.18Zm-2.07,52.91a34.65,34.65,0,0,1-25.4,10.52H201.28V3.68h15.05a34.68,34.68,0,0,1,25.4,10.51,34.68,34.68,0,0,1,10.58,25.44A34.67,34.67,0,0,1,241.73,65.09Z" style="fill:#00aeef"/><polygon points="263.79 1.13 263.79 78.53 269.26 78.53 314.81 1.13 311.45 1.13 266.71 77.13 266.71 1.13 263.79 1.13 263.79 1.13" style="fill:#00aeef"/><polygon points="323.57 0.76 320.65 0.76 320.65 78.53 323.57 78.53 323.57 0.76 323.57 0.76" style="fill:#fff"/><path d="M354.59,79.29c-.46,0-.92,0-1.4-.06a29.5,29.5,0,0,1-13.42-3.79,20.18,20.18,0,0,1-9.38-10.5l2.7-1a17.27,17.27,0,0,0,8.3,9.15,27.32,27.32,0,0,0,11.91,3.31c6.47.24,11.91-1.39,16.31-4.94q6.12-4.87,6.39-11.7.53-12.61-21.46-18.78c-7.9-2.2-13.87-5.14-17.86-8.79s-5.92-7.93-5.69-12.71q.5-10.57,8.87-15.66C344.46,1,350.07-.28,356.72.05q11.83.48,18.95,8.06l-2.16,2q-6.24-6.72-16.9-7.21c-6.06-.26-11.15.85-15.22,3.31q-7.09,4.32-7.48,13.33Q333.39,32,355.35,38.17,367.22,41.5,373.23,47c4,3.68,5.92,8,5.69,12.83Q378.53,68,371.4,73.7a26,26,0,0,1-16.81,5.59Z" style="fill:#fff"/><path d="M412.16,80a25.15,25.15,0,0,1-18.47-7.69A25.07,25.07,0,0,1,386,53.83V.7h2.92V53.83a22.36,22.36,0,0,0,6.84,16.42,23.15,23.15,0,0,0,32.82,0,22.38,22.38,0,0,0,6.82-16.42V.7h2.92V53.83A26.15,26.15,0,0,1,412.16,80Z" style="fill:#fff"/><path d="M488,.75c-16.5,26.07-32.76,51.84-49.18,77.78h3.48c24.2-38.32,16.61-26.34,48.25-76.31V78.53h2.86V.75Z" style="fill:#fff"/><polygon points="503.99 0.76 503.99 78.53 543.74 78.53 543.74 75.61 506.91 75.61 506.91 0.76 503.99 0.76 503.99 0.76" style="fill:#fff"/><path d="M161.23,39.64,184.92,2.22V39.64h2.87V.75h-5.42c-2.11,3.33-15.31,23.93-24.78,38.89Z" style="fill:#00aeef"/><path d="M166.33,79.16,169,77.07a7.27,7.27,0,0,0,2.75,2.15,9,9,0,0,0,3.74.77,12.16,12.16,0,0,0,4.57-.83,9.77,9.77,0,0,0,3.45-2.32,10.31,10.31,0,0,0,2.17-3.52,12.9,12.9,0,0,0,.76-4.47A9.74,9.74,0,0,0,185,63.29a12,12,0,0,0-4.87-4L175.58,57a16.35,16.35,0,0,1-2-1.14,4.12,4.12,0,0,1-1.23-1.31,3.82,3.82,0,0,1-.43-1.88,4.65,4.65,0,0,1,.82-2.63A5.63,5.63,0,0,1,175,48.13a7.64,7.64,0,0,1,3.43-.75,5.7,5.7,0,0,1,4.49,2,11,11,0,0,1,2.28,5.85h1.27l1.31-8.7h-.68l-2.38,2.23a8,8,0,0,0-2.87-2.1,9.59,9.59,0,0,0-3.71-.67,9.41,9.41,0,0,0-4.78,1.22,8.32,8.32,0,0,0-3.18,3.34,10.67,10.67,0,0,0-1.15,5,10,10,0,0,0,.44,3.14A6.45,6.45,0,0,0,170.76,61a9.37,9.37,0,0,0,2.08,1.78,30,30,0,0,0,2.84,1.61l4.06,2.09a7.13,7.13,0,0,1,2.68,2.29,5.59,5.59,0,0,1,1,3.11,6.18,6.18,0,0,1-.58,2.64,6.6,6.6,0,0,1-1.56,2.15,7.24,7.24,0,0,1-2.32,1.45,7.65,7.65,0,0,1-2.86.52,7,7,0,0,1-5.3-2.19,11.9,11.9,0,0,1-2.69-6.51h-1.55l-1.21,9.24Zm-15.7-11.24H142l8.38-13.09ZM140.27,79.16V77.94h-4.7l5.62-8.7h9.44l.15,8.7h-4.36v1.22H161V77.94h-4.36L156,46h-1.7L134.07,77.94h-2.66v1.22ZM121,62.86,123.8,48h1.6a12.47,12.47,0,0,1,3.95.48,3.81,3.81,0,0,1,2.19,1.75,6.8,6.8,0,0,1,.69,3.41,14,14,0,0,1-.34,3.1,10.83,10.83,0,0,1-.95,2.64,7.91,7.91,0,0,1-1.47,2,4.76,4.76,0,0,1-1.63,1,7.87,7.87,0,0,1-2,.41c-.73.06-1.54.08-2.43.08Zm1.07,16.3V77.94H118l2.66-13.67h1.84c1.42,0,2.78,0,4.06-.06a23.65,23.65,0,0,0,3.68-.42,12.73,12.73,0,0,0,3.35-1.13,8.54,8.54,0,0,0,3.67-3.25,9.27,9.27,0,0,0,1.23-4.83,6.88,6.88,0,0,0-2.64-5.83c-1.76-1.33-4.39-2-7.88-2H113.82V48h4l-5.76,30h-3v1.22Zm-44.81,0V77.94H73.19l5.66-28.61h.49l3.1,29.83h1.45L98.61,49.38h.54L93.58,77.94H89.41v1.22h14.34V77.94H99.59L105.44,48h4.46V46.75H98.57L88,68h-.44L85.29,46.75H73.57V48h4L71.73,77.94h-4v1.22ZM53.91,47.24a5.17,5.17,0,0,1,4.44,1.89c.95,1.26,1.43,3.19,1.42,5.79,0,1.1-.07,2.27-.19,3.55s-.31,2.6-.56,4-.56,2.75-.92,4.12-.8,2.74-1.29,4a15.85,15.85,0,0,1-3.63,6.12,7.08,7.08,0,0,1-5,2,5.26,5.26,0,0,1-4.46-1.86c-1-1.26-1.45-3.18-1.44-5.78a35.21,35.21,0,0,1,.19-3.56c.14-1.26.32-2.58.58-3.95s.56-2.73.94-4.11.8-2.73,1.29-4.05a21.35,21.35,0,0,1,2.3-4.57,9.06,9.06,0,0,1,2.84-2.71,7.09,7.09,0,0,1,3.53-.89M35.65,66.9a15.42,15.42,0,0,0,.87,5.18A12.55,12.55,0,0,0,39,76.21,10.84,10.84,0,0,0,42.68,79a11.33,11.33,0,0,0,4.74,1A15.06,15.06,0,0,0,54.75,78a22,22,0,0,0,6.52-5.69A27,27,0,0,0,64.12,68a22,22,0,0,0,1.75-4.48,17.36,17.36,0,0,0,.58-4.41,14.91,14.91,0,0,0-.88-5.23,12.42,12.42,0,0,0-2.45-4.14A11.15,11.15,0,0,0,59.37,47a11.87,11.87,0,0,0-4.78-1,14.88,14.88,0,0,0-7.24,1.89,22.14,22.14,0,0,0-6.47,5.65A24.44,24.44,0,0,0,37,60.16a18.31,18.31,0,0,0-1.31,6.74M34.53,79.16V77.94H30.27L19,59.83,31.72,48h4V46.75H24.61V48H29.5L14,62.25l9.5,15.69H19v1.22Zm-19.81,0V77.94H10.65L16.42,48H21V46.75H6.34V48h4L4.55,77.94H0v1.22Z" style="fill:#fff"/></g></g></svg>