
<svg version="1.1" xmlns="http://www.w3.org/2000/svg" xmlns:xlink="http://www.w3.org/1999/xlink" fill="#ffffff" x="0px" y="0px" viewBox="0 0 35 35" enable-background="new 0 0 35 35" xml:space="preserve"><path fill-rule="evenodd" clip-rule="evenodd" d="M16.652,0.117c2.854-0.135,5.682,0.113,8.359,0.366c2.883,0.272,4.974,0.668,6.668,2.055c1.684,1.377,2.556,3.28,2.833,5.892c0.573,5.433,0.648,10.901,0.182,16.351c-0.257,3.006-0.588,4.964-2.01,6.714c-1.393,1.716-3.216,2.547-5.847,2.878c-5.055,0.636-10.781,0.89-16.351,0.273c-2.849-0.314-5.017-0.744-6.668-2.055c-1.763-1.4-2.596-3.106-2.923-5.802c-0.295-2.434-0.451-5.115-0.594-8.128c-0.116-2.462,0.117-5.749,0.366-8.268c0.299-3.021,0.538-4.942,1.964-6.76C4,1.89,5.771,1.028,8.432,0.711C10.938,0.414,13.616,0.263,16.652,0.117z M10.396,8.567c0.837,0,1.674,0,2.512,0c-1.243,5.943-2.381,11.992-3.654,17.904c-0.929,0-1.857,0-2.786,0c0,0.243,0,0.487,0,0.73c3.06,0,6.12,0,9.181,0c0-0.243,0-0.487,0-0.73c-0.822-0.03-1.766,0.061-2.512-0.046c1.193-5.962,2.326-11.986,3.608-17.858c0.945,0,1.889,0,2.833,0c0-0.259,0-0.518,0-0.777c-3.046,0-6.09,0-9.136,0C10.336,7.959,10.426,8.323,10.396,8.567z M21.814,7.791c-0.106,0.168-0.016,0.532-0.046,0.777c0.99,0,1.98,0,2.97,0c-3.139,2.891-6.416,5.644-9.547,8.542c1.951,3.088,4.029,6.293,5.847,9.363c-0.914,0-1.826,0-2.74,0c0,0.243,0,0.487,0,0.73c3.227,0,6.454,0,9.683,0c0-0.243,0-0.487,0-0.73c-0.883,0-1.766,0-2.65,0c-2.355-3.611-4.694-7.241-7.032-10.871c2.265-2.005,4.649-4.103,6.942-6.166c0.36-0.324,0.757-0.797,1.051-0.868c0.771-0.187,1.701,0.143,2.42,0c0-0.259,0-0.518,0-0.777C26.413,7.791,24.113,7.791,21.814,7.791z"></path></svg>