<svg xmlns="http://www.w3.org/2000/svg" xmlns:xlink="http://www.w3.org/1999/xlink" viewBox="0 0 30.35 40.2"><defs><clipPath id="clip-path" transform="translate(0 0)"><rect width="30.35" height="40.2" style="fill:none"/></clipPath></defs><title>klasiloka</title><g id="Layer_2" data-name="Layer 2"><g id="Layer_1-2" data-name="Layer 1"><g style="clip-path:url(#clip-path)"><path d="M15.18,10.66A4.35,4.35,0,1,0,19.57,15a4.37,4.37,0,0,0-4.39-4.35m0,11.41A7.07,7.07,0,1,1,22.32,15a7.11,7.11,0,0,1-7.14,7.06" transform="translate(0 0)" style="fill:#fff"/><path d="M15.18,0A15.11,15.11,0,0,0,0,15,16.2,16.2,0,0,0,2,21.8l2.08-2.05A12.25,12.25,0,0,1,2.76,15a12.42,12.42,0,0,1,24.83,0c0,5.27-8.17,16-12.41,21A107,107,0,0,1,6.84,24.79l5.05-5-2-1.93-6.58,6.5.55.91A109.1,109.1,0,0,0,14.14,39l1,1.17,1-1.17c.58-.65,14.14-16.07,14.14-24A15.11,15.11,0,0,0,15.18,0" transform="translate(0 0)" style="fill:#fff"/></g></g></g></svg>