<svg xmlns="http://www.w3.org/2000/svg" viewBox="0 0 653.44 144.44"><title>logo klasika</title><g id="Layer_2" data-name="Layer 2"><g id="_Layer_" data-name="&lt;Layer&gt;"><polygon points="503.2 107.67 503.2 103.72 489.92 103.72 508.74 6.48 523.76 6.48 523.76 2.37 475.85 2.37 475.85 6.48 488.97 6.48 470 103.72 455.14 103.72 455.14 107.67 503.2 107.67 503.2 107.67" style="fill:#ed1651"/><path d="M585.77,107.67v-4H570.43l18.34-28.31H619.6l.48,28.31H605.85v4h47.59v-4H639.21L637.15,0h-5.53L565.53,103.72h-8.69v4ZM619.6,71.15H591.3l27.35-42.53,1,42.53Z" style="fill:#ed1651"/><polygon points="441.9 107.67 441.9 103.72 428.62 103.72 447.43 6.48 462.45 6.48 462.45 2.37 414.54 2.37 414.54 6.48 427.67 6.48 408.69 103.72 393.83 103.72 393.83 107.67 441.9 107.67 441.9 107.67" style="fill:#ed1651"/><path d="M317.94,107.67l8.86-6.8a23.91,23.91,0,0,0,9,7,29.32,29.32,0,0,0,12.2,2.51,39.83,39.83,0,0,0,14.92-2.72,31.42,31.42,0,0,0,11.25-7.51,32.88,32.88,0,0,0,7.09-11.46,41.55,41.55,0,0,0,2.47-14.52c.06-7-1.6-13-5-18.05s-8.64-9.35-15.88-12.94l-14.71-7.43A48,48,0,0,1,341.69,32a13,13,0,0,1-4-4.27,12.27,12.27,0,0,1-1.4-6.11,15.24,15.24,0,0,1,2.64-8.54,18.64,18.64,0,0,1,7.38-6.27,24.92,24.92,0,0,1,11.17-2.42A18.68,18.68,0,0,1,372.15,11q5.73,6.53,7.45,19h4.11L388,1.74h-2.21L378,9a25.86,25.86,0,0,0-9.38-6.82A33.48,33.48,0,0,0,341,4a27,27,0,0,0-10.38,10.86A34.35,34.35,0,0,0,326.8,31a32.41,32.41,0,0,0,1.42,10.2,21.6,21.6,0,0,0,4.19,7.43,32.27,32.27,0,0,0,6.8,5.77,94.63,94.63,0,0,0,9.25,5.21l13.28,6.8a23.25,23.25,0,0,1,8.72,7.46A18,18,0,0,1,373.6,84a20.41,20.41,0,0,1-1.88,8.57,21.26,21.26,0,0,1-5.08,7,24,24,0,0,1-7.59,4.72,25.87,25.87,0,0,1-9.33,1.71c-7.06,0-12.83-2.4-17.31-7.14S325,87,323.64,77.63h-5.06l-4,30Z" style="fill:#ed1651"/><path d="M257.31,41.78l8.46-13.16c.65,29,1,47.89,1.42,75.1H253v4h47.59v-4H286.32L284.27,0h-5.54L252.11,41.78Z" style="fill:#ed1651"/><path d="M147.19,103.72,166,6.48h13.44V2.37H133.12V6.48h13.13l-19,97.24H112.41v4h85.38L205.85,75l-4.74-.47a111.36,111.36,0,0,1-7.59,13.94,39.66,39.66,0,0,1-7.83,9,25.46,25.46,0,0,1-9.12,4.82,40.51,40.51,0,0,1-11.51,1.43Z" style="fill:#ed1651"/><path d="M112.73,107.67v-4h-4.42a16.73,16.73,0,0,1-14.54-8.06L62,44.85,103.56,6.48h13.12V2.37H80.32V6.48h16L45.85,52.73,70.77,93.89a27.9,27.9,0,0,0,24.46,13.78Z" style="fill:#ed1651"/><polygon points="48.06 107.67 48.06 103.72 34.78 103.72 53.6 6.48 68.62 6.48 68.62 2.37 20.71 2.37 20.71 6.48 33.83 6.48 14.86 103.72 0 103.72 0 107.67 48.06 107.67 48.06 107.67" style="fill:#ed1651"/><path d="M567.87,107.67v-4h-4.42a16.73,16.73,0,0,1-14.54-8.06L517.12,44.85,558.7,6.48h13.12V2.37H535.46V6.48h16L501,52.73l24.92,41.16a27.9,27.9,0,0,0,24.46,13.78Z" style="fill:#ed1651"/><path d="M217.88,98.21l12.51-19.46a27.87,27.87,0,0,1,24.05-13.12h10.9l-3.2,1.85a16.44,16.44,0,0,0-5.86,5.62l-13.6,21.34a27.85,27.85,0,0,1-24.11,13.23H200.12l7.93-2.2a16.52,16.52,0,0,0,9.83-7.26Z" style="fill:#00599a;fill-rule:evenodd"/><path d="M511.89,143.84V143h-2.95l4.17-21.54h3.33v-.91H505.83v.91h2.9L504.53,143h-3.29v.87Zm14.32,0V143h-3.08l-8.16-13,9.21-8.5h2.9v-.91H519v.91h3.54L511.4,131.68,518.26,143H515v.87ZM527,135a11.18,11.18,0,0,0,.63,3.73,9.13,9.13,0,0,0,1.77,3,7.72,7.72,0,0,0,2.69,2,8.34,8.34,0,0,0,3.42.72,10.93,10.93,0,0,0,5.3-1.37,16,16,0,0,0,4.72-4.1,18.54,18.54,0,0,0,2.06-3.13,15.12,15.12,0,0,0,1.26-3.22,12.09,12.09,0,0,0,.43-3.17,11.13,11.13,0,0,0-.64-3.77,9.17,9.17,0,0,0-1.77-3,8.05,8.05,0,0,0-2.72-2,8.44,8.44,0,0,0-3.45-.7,10.71,10.71,0,0,0-5.23,1.36,15.76,15.76,0,0,0-4.68,4.06,17.79,17.79,0,0,0-2.84,4.75,13.28,13.28,0,0,0-1,4.85Zm13.21-14.15a3.78,3.78,0,0,1,3.21,1.36,6.83,6.83,0,0,1,1,4.18c0,.78,0,1.63-.13,2.55s-.23,1.86-.41,2.84-.4,2-.66,3-.58,2-.93,2.91a11.57,11.57,0,0,1-2.63,4.41,5.13,5.13,0,0,1-3.64,1.44,3.81,3.81,0,0,1-3.23-1.34,6.71,6.71,0,0,1-1-4.16,23.6,23.6,0,0,1,.14-2.56c.1-.91.23-1.86.42-2.84s.41-2,.68-3,.58-2,.93-2.91a15,15,0,0,1,1.66-3.29,6.66,6.66,0,0,1,2.06-2,5.19,5.19,0,0,1,2.55-.64Zm16.91,23V143h-3l4.1-20.59h.35l2.24,21.46h1l10.65-21.43h.39l-4,20.56h-3v.87h10.36V143h-3l4.24-21.54h3.22v-.91h-8.19l-7.67,15.32h-.32l-1.61-15.32h-8.47v.91h2.9L553.1,143h-2.87v.87Zm32.39,0V143h-2.94l1.93-9.84h1.33c1,0,2,0,2.94,0a17.29,17.29,0,0,0,2.66-.31,9.45,9.45,0,0,0,2.42-.81,6.27,6.27,0,0,0,2.65-2.34,6.58,6.58,0,0,0,.89-3.47,4.93,4.93,0,0,0-1.91-4.2,9.52,9.52,0,0,0-5.69-1.44H583.54v.88h2.9L582.28,143h-2.21v.87Zm-.77-11.73,2-10.71h1.16a9.06,9.06,0,0,1,2.85.35,2.74,2.74,0,0,1,1.59,1.25,4.89,4.89,0,0,1,.49,2.46,10,10,0,0,1-.24,2.23,7.62,7.62,0,0,1-.69,1.9,5.49,5.49,0,0,1-1.06,1.44,3.24,3.24,0,0,1-1.18.73,5.65,5.65,0,0,1-1.44.29,16.2,16.2,0,0,1-1.76.06Zm13.91,11.73V143h-3.4l4.06-6.27h6.83l.11,6.27h-3.15v.87h10.54V143h-3.16L614,120h-1.23l-14.63,23h-1.93v.87Zm7.49-8.08h-6.27l6.06-9.43.21,9.43Zm11.35,8.08,2-1.5a5.42,5.42,0,0,0,2,1.55,6.67,6.67,0,0,0,2.7.55,8.87,8.87,0,0,0,3.31-.6,7.16,7.16,0,0,0,2.49-1.66,7.29,7.29,0,0,0,1.57-2.54,9.26,9.26,0,0,0,.55-3.22,6.93,6.93,0,0,0-1.11-4,8.7,8.7,0,0,0-3.52-2.86l-3.25-1.65a9.69,9.69,0,0,1-1.43-.82,2.83,2.83,0,0,1-.89-.94,2.76,2.76,0,0,1-.31-1.36,3.45,3.45,0,0,1,.58-1.89,4.25,4.25,0,0,1,1.64-1.39,5.45,5.45,0,0,1,2.47-.53,4.1,4.1,0,0,1,3.25,1.46,7.92,7.92,0,0,1,1.66,4.21h.91l.94-6.27h-.49L634.81,122a5.91,5.91,0,0,0-2.08-1.51,7.48,7.48,0,0,0-6.14.39,6.07,6.07,0,0,0-2.3,2.41,7.66,7.66,0,0,0-.83,3.58,7.18,7.18,0,0,0,.31,2.26,4.78,4.78,0,0,0,.93,1.65,7.1,7.1,0,0,0,1.51,1.27,20.83,20.83,0,0,0,2,1.16l2.94,1.5a5.18,5.18,0,0,1,1.93,1.66,4,4,0,0,1,.7,2.23,4.63,4.63,0,0,1-.42,1.9,4.76,4.76,0,0,1-1.13,1.55,5.12,5.12,0,0,1-1.68,1,5.76,5.76,0,0,1-2.06.38,5,5,0,0,1-3.84-1.58,8.65,8.65,0,0,1-1.94-4.69h-1.12l-.88,6.65Z" style="fill:#00599a"/></g></g></svg>