<svg xmlns="http://www.w3.org/2000/svg" viewBox="0 0 327.42 120.87"><title>eksplor</title><g id="Layer_2" data-name="Layer 2"><g id="Layer_1-2" data-name="Layer 1"><path d="M119.43,49.63s0,0,0,0Z" style="fill:#fff"/><path d="M146.23,65.78l-.77-3.35A15.31,15.31,0,0,0,142,56.77a11.53,11.53,0,0,0-3.74-2.32,16.48,16.48,0,0,0-4.89-1.54l-1.54-.13a7.36,7.36,0,0,1-3.35-1.55c-1.93-1.67.39-4,1.29-4.25L133,46c.64,1.16-.13,1,1.15,2.06l1.29,1.29c1,1,.9.13,1.93-.26a4.86,4.86,0,0,0,4-1.54c.39-.52.39-1,.77-1.67,1-2.06.65-1.29.39-2.84-.13-1.93-.26-2.31-2.57-3.47L138.77,39a13.69,13.69,0,0,0-4.38-1.15,12.55,12.55,0,0,0-3.09-.13,23.61,23.61,0,0,0-3.22-.13,4.24,4.24,0,0,0-2.44.51l-2.45.9A10.41,10.41,0,0,0,121,40.81a8.13,8.13,0,0,0-2.44,4.89l.77,3.21a3.69,3.69,0,0,1,.1.72s.07-.11.29.06c1.8,1,.64,1.41,4.5,3.73a26.37,26.37,0,0,1,3.48,1.42c1.16.51,2.83,1.41,4.24,1.28l1.42.13a11.1,11.1,0,0,1,2.06,1.16c.64.39.51.13,1,.64l1.16,1.29c1.93,1.68,3.09,6.44,2.32,8.75-.52,1.68-1.81,3-1.81,4.77h-.64c-.13,1.16-.26.38,0,1.54-.51.13-.77.13-1,.52a.13.13,0,0,0-.13.13l-.13.25v.13l-.9,1.16c-.51.52-.51.26-.64,1a3.18,3.18,0,0,0-1.55.52l-.51.51c-.52.64-.39.39-1,.64l-.52.13-.64.39c-1.67.77-1.42.9-3.22.64-2.57-.38-3,0-5.28-1.41l-.55-.62,1.33-3.25c.64-2.18.77-4.11,1.54-6.17a6,6,0,0,0,.49-3.18l.41-.43c.65-.64.52-.77,1-1.41.52-1,1-.78,1-2.06h-1l-4.5,1.16c-2.19.25-.77-.26-3.48.9a13.32,13.32,0,0,0-3,1.67,15.11,15.11,0,0,0-3.35,3.6c-.64.91-.77,1.93-1.41,3-1.55,2.58-.52,4.64-.77,6.18-.13.52-.26.13-.39.9.77.13.64.78.77,1.55l.26,1,.39,1,1.54,2.57a2.1,2.1,0,0,1,.52.91l.43.62c-.2.47-.39,1-.56,1.43-1.94,5.67-1.29,7.86-5.28,12.23-2.45,2.58-1.68,5.54-5.28,5.41-2.83-.13-4-2.19-4.63-4.5a12.53,12.53,0,0,1-.39-1.42c-.65-2.83-.9-1.29-1.29-5.54l-.38-2.83c-.65-1.54-1.42-.13-2.06-2.06-.65-2.7-.13-3.6-.39-6.44,0-1.54-.13-.38-.26-1.54-.51-2.06-1.54-2.06-2.06-4.25l-1-4.63c-.25-.9-.77-7.08-.9-7.6-.13-.9-1.67-3.73-.9-4.12l6.44-3.34c.13,0,.13,0,.13-.13,1.15-1,2-.9,3.21-2.06L100,51.1c.26-1.8,1-.9.13-4.89A4.52,4.52,0,0,0,98.6,43.9c-1-.78-2.19-1.94-3.47-1.94L92,41.84h-.13c-.13,0-.13,0-.26.12a15.33,15.33,0,0,0-4.12,1.29c-1.67.65-3.73,2.58-5,3.86l-2.7,2.71a23.21,23.21,0,0,1-1.54,1.93l-2.58,2.83c-.51.51-.13,0-.39.51l-.25.39-.13.13a34.59,34.59,0,0,0-.13-3.86l.13-.78a16.74,16.74,0,0,1,.38-4l.52-5.92a4,4,0,0,0,0-1.28c0-1.29.64-.91.9-2.32l.13-1.29c.64-2.44.77-4.89,1.42-7.33v-.13l.9-6.57c.12-1.67,1.28-6.56,1.28-7.08a19.33,19.33,0,0,0-.38-4.12,1.36,1.36,0,0,1-.13-.64l-.13-.65A4.67,4.67,0,0,0,78.39,7C77,5.66,76,4.63,73.89,4.51c-.26,1.15-3,2.18-3.61,3.47,0,.26-.12.52-.12.77-.91,2.71-3,11.59-3,12l.38,2.18c.13,1.55-1.16,3-1.8,4.51L63.72,33.6c-.13,1-.39.77-.39,1.67A5.12,5.12,0,0,1,63,36.82c-1,2.31-1,5.53-1.55,7.85,0,.51-.26,1.54-.26,1.8a3.2,3.2,0,0,1-.64,1.8c-.38,1.55,0,2.06-.64,3.73-.77,1.42-.26.65-.52,1.68L58.57,57a1.39,1.39,0,0,1-.26.77l-1,3.22A13.5,13.5,0,0,0,57.15,63l-.51,2.57c-.13.64-.26.64-.39.64v.39h0l-9.4,9.53-.12.13-.39.25c-6.18,5.92-7.59,7.47-15.06,10.3a11.66,11.66,0,0,1-2.57.77c-2.45.52-5.54,1-7.21-.64s-2.19-3.35-3-5.54.25-2.44,1.8-3.6c3.22-2.19,2.32-2.58,3.73-2.83.13-1.29-.13-.39.39-1s1.41-.9,2.06-1.55c.38-.51.26-.64.77-1.16l1-.77c1.16-.64,1.8-1.67,2.83-2.44,1.68-1.29,5-2.84,5.92-4.77.39-1,1.42-.9,1.42-1.54-.13.13-.26.13-.26-.52,0-1.41,1.67-2.57,2.7-3.6a24,24,0,0,0,1.16-5.79,13.54,13.54,0,0,0-.77-3.61l-1.54-3.09c-1-1.67-4.77-2.57-6.7-2.57a23.56,23.56,0,0,1-3.09.13c-2.19-.26-8.75,1.93-10.94,3a24.49,24.49,0,0,0-8.75,6.18L5,58.05c-1.55,2.58-3,3.48-4,7.08L.77,66.68c-.26.77-.77,1-.77,1.41,0,1.16.26.91.26,1.81a57.39,57.39,0,0,0-.13,6.82,7.19,7.19,0,0,0,1,3.47,22.64,22.64,0,0,1,.9,2.58l1,1.8C4.76,86.76,6.18,89.21,8.37,91c2.44,1.93,7.34,3.34,10.55,3.22,3.61-.26,5,.12,9.4-.91a21.13,21.13,0,0,1,3-.64c1.55,0,2.06,0,2.7-.9l-2.06.64v-.64c1.42-.13,4.64-1.67,5.8-2.32a14.94,14.94,0,0,0,2.44-1.41,18,18,0,0,0,2.32-1.8l6.43-5.8c.78-.77,1.55-1.16,1.68-2.44,1.29-.13.9-.13,1.54-.9a5.73,5.73,0,0,1,1.16-1.29l2.19-2.31a7.76,7.76,0,0,0,.26,1.41L56,81.1c.51,2.06.9,5.28,2.83,7.2,2.06,2.19,5.28.91,7.59,1.81,1.55.64,2.71,3.35,3.09.64l2.58-16.6c.38-2.06,1.8-6.06,2.83-7.21.51-.52.13-.26.77-.52,1.16-.38,1.93,2.83,3,4.12,2.45,3.61,1.8,2.19,1.8,10.3-.12,3,.9,4,1.16,5.92l.52,2.06.51,3.35c.64,3.09-.13,1.54.52,3.86.12.51,0,.38,0,.64l.12.9a1.31,1.31,0,0,0,.13.39l.78,3.61a4.19,4.19,0,0,0,0,1.8c0,1.41.51.51.38,1.8,0,.13-.13.9-.13.9v.26c.26,2.57,1.16,2.44,2.06,4.12A5.72,5.72,0,0,0,87.92,112a9,9,0,0,0,3.73,2.06c4.76,1.29,8.76,1.16,12.88-1,2.83-1.55,3.34-3.61,5-6l2.83-4c1.28-1.67,0-3.22,1.54-5,1.16-1.55.52-3.73,1.42-5.92l.91-2.46a5.84,5.84,0,0,0,1,.53c3.35,1.41,1.54.64,3.22.77.64.13-.13.39,2.32.39l6.05-.91c1.41-.12,3.34-.12,4.76-.9.77-.51.13-.25,1-.51,1.16-.26.9-.39,1.8-1,.64-.51,2.32-1.93,2.45-2.58l.38-.25h.13c.64-.13.52-.39,1.55-.52,0-.9.12-.77.12-1.8.91,0,.52.13,1.16-.13,0-1,3.09-7.59,3.61-8.75l.26-.9a5.15,5.15,0,0,1,.12-1.29,9,9,0,0,0,.13-3.22l.13-1.54A8.42,8.42,0,0,1,146.23,65.78ZM17.89,72.21c0-1.15.52-.9.52-1.8,0-4,.25.39,1.28-3.73.78-3.22,1.55-1.55,3.22-5.28.65-1.41.13-.51,1.55-1.41,1.28-.65,1.93-1.81,3.86-1.94v-.9a3.91,3.91,0,0,0,2.19-.51A5.86,5.86,0,0,1,32.83,56c1.8,2.7,1.28,3.73-.65,5.66l-1,1.16c-1,1.54-1,.9-3.35,3.22a29.3,29.3,0,0,1-2.44,1.8L22.91,69.9a18.41,18.41,0,0,0-2.31,2.19L18,74C18,73.12,17.89,72.47,17.89,72.21Zm40.94,4.25,1,2.06C58.57,77.49,58.44,77,58.83,76.46Zm1,5.54c-.9-1-1.29-1.55-.77-2.06Zm-2.32-3.86.64,1.67-1.41-.9C57.15,78.78,56.25,74.66,57.54,78.14Zm.26,3.47-.77.64.25-.51-1.15-1.93C58.7,81,57,80.19,57.8,81.61Zm0,4.25c.13-.26,1.16.13-.9-2.58,2.31,1.16.9.39,1.54,1.94l.9,1.67ZM60,83.41l.77,2.06C59.47,84.44,59.47,83.93,60,83.41ZM82,56l3.47-4.77.65-.51,2.06-2.06c1.54-1,3.34-2.71,5.66-2.58s-1.67,4.51-4.25,5.8S85.09,55.48,82,56Z" style="fill:#fff"/><path d="M193.21,41.06l-1-1.93c-2.32-4.25-9.53-3.22-11.07-2.31A16.64,16.64,0,0,0,178.8,39l-.39.26a5.64,5.64,0,0,0-2.19,2.06l-.64.9c0,.13-.26.26-.13.39l-1.16,1.29c-.77.9-1.41,2.18-2.19,2.7a18.29,18.29,0,0,1-.25-3.35c-.13-1,.38-2.57.38-3.6,0-.39-.13-3.22-.13-3.22-.12-1-.64-2.06-.77-3.6-2.44-.91-.64-.39-2.32-1.55-2.7.64-4,2.32-5.79,4.38L161,39.13a.13.13,0,0,0-.13.13l-.78,1.29c-1,1.8-.64.26-2.44,4.12-.52,1.28-2.06,4.37-2.19,5.79h.9a6.26,6.26,0,0,1,1.29-3.86,3.46,3.46,0,0,1,2.7-1.8l-1.16,1.8a6,6,0,0,0-1.41,3.22v.25a.48.48,0,0,1-.13.39c-.13.51-.26.26-.9,1.16,1.54.13.51-.26,1.28.64-3,0-2.19,1-2.31-1.54a5.6,5.6,0,0,0-1.29,3.09c.9,2.44-2.45,5.4,0,5.66-.13,4.51-2.32,6-.77,8.24-1.81,0-1.16-.38-1.42.77-.26.77,0,.9.26,1.93,0,.13-.13,0-.13.13-.26.77-.13,0-.39,0-.77.52-.64,1-.51,2.06V73c0-.13,0-.13-.13.13-.13.77-.64,1.54.13,2.31-1.29.39-.9,3-1.55,6.44l-1.41,9.27a68.89,68.89,0,0,0-.77,7.08l-.13,9.39c0,1.93,1.41,5.92,2.19,8.11s2,3.87,4.89,3.87c1.28,0-.13-.65,1.41.25,1.68,1.29.9.26,2.58.65,1.16.26.13.26,1.67.38a4.71,4.71,0,0,0,.26-1.54h.51c.78,2.18,2.19.9,3.35.64a2.18,2.18,0,0,1-.39-.9v-.64l-.12-3,.38-2.31a9,9,0,0,1,.77-1.93c.65-2.32.52-4,1.55-6.7.26-1,0-1.15.26-2.31.25-.9.51-.64.77-2.06.38-3.48,1.41-7,1.28-10.56V89c-.25-3.86,1,.38.26-5,1.42.13.39,0,1.42.51a7.94,7.94,0,0,1,2.83,1.68,4.59,4.59,0,0,1,.9,1.29c6.57,0,6.18-.65,10-1.55,1.29-.52.9-.52,1.8-1.29l4-4.5.13-.13L194,74.15a10.88,10.88,0,0,0,.64-1.81,9.46,9.46,0,0,1,.9-1.54l.13-.52.77-5.92a47.38,47.38,0,0,0-.51-12.74ZM154.86,58.57q0-.2-.39,0a.45.45,0,0,0-.13-.26l.52-.64Zm-.26-1.29c-.13-1.8-.26-.9.51-1.28C154.86,56.77,155,56.9,154.6,57.28Zm1.28,4.25s-.9.39-.38-.13S156.66,61.92,155.88,61.53Zm2.06-5.79-1.28-.9c1.54-.52-.26-.13,1.28-.65Zm1.81-7.47c-.39,0-.39.64-.39,0C159.36,47.37,160.39,48.14,159.75,48.27Zm.13,2.45-.65.77c.26-.9-.13-.52.65-.77V49.56a.12.12,0,0,0,.12.13c0,.13.13.25.13.38C160,50.85,160,50.59,159.88,50.72Zm.25,10.3h1.29c.13,1.28.13.25.64,1.67C160.26,62.43,160.78,62.3,160.13,61Zm4.38.38v-.64c1.54.13.52-.39,1.29.64Zm20.73-6.31c.12,1.55.25.39.25,1.81a15.36,15.36,0,0,1-.25,2.18,16.32,16.32,0,0,1-.91,3.61c-.38,1-1,2.19-1.28,3.09a19.44,19.44,0,0,1-4.64,7.59.13.13,0,0,1-.13.13c0,.13-.13.13-.13.26s-.38.51-.51.51a13.79,13.79,0,0,1-3.48,1.29c-3.21.77-1.28.26-4.11.26,1.15-1.8.38-2.7,1-4.64l2.19-6.82c1.42-3.6-.51-1.67,2.71-9.39,2.7-6.57,3.08-4.9,4.5-7.73l2.45-3.47a4.8,4.8,0,0,1,1.93-1.16c1.16,2.19.51,1.93,1,6S185.24,54.19,185.24,55.09Z" style="fill:#fff"/><path d="M264.53,48.14c.12-.13.12-.13.12-.25C264.14,48.14,264.14,48.53,264.53,48.14Z" style="fill:#fff"/><path d="M256.29,57.28v.52c.13-.13.13-.13.13-.26A.4.4,0,0,0,256.29,57.28Z" style="fill:#fff"/><path d="M256.8,56.77a.13.13,0,0,1,.13-.13.45.45,0,0,1,.13-.26v-.13c0-.13.13-.13,0-.25s0,0-.26.12v.26a.13.13,0,0,0-.13.13c.13.26,0,.26,0,.52Z" style="fill:#fff"/><path d="M255.64,59c-.12.51-.12.25-.12.64C255.77,59.21,255.77,59.21,255.64,59Z" style="fill:#fff"/><path d="M258,54.32a2.47,2.47,0,0,1-.64,1.16c.13,0,.26-.13.38-.26,0,.26.13,0-.12.52l.25-.39.13-.13c0-.51-.26.13-.13-.25C258,54.32,258.22,54.84,258,54.32Z" style="fill:#fff"/><path d="M254,64.11l.26-.78-.13-.13a.4.4,0,0,0-.26.13C253.84,63.72,254,63.72,254,64.11Z" style="fill:#fff"/><path d="M255,61.66h-.13l-.13.26v.13l.26.51A1.08,1.08,0,0,0,255,61.66Z" style="fill:#fff"/><path d="M258.73,53.68c.26-.64.77-1,.13-.64,0,.12.13-.13,0,.12s-.13.13-.13.26-.13,0-.13.13a1.8,1.8,0,0,0-.38.64c.13.13.13-.13.13.13s.1.23.08.26h.05c.25-.65,0-.52.12-.9Z" style="fill:#fff"/><path d="M255.39,60.63c.25-.77.25-.26.13-.77C255.26,60.5,255.39,60.24,255.39,60.63Z" style="fill:#fff"/><path d="M254.49,63.46c.12.26.25.26.38.26-.13-.26-.13-.52-.26-.39S254.74,63.33,254.49,63.46Z" style="fill:#fff"/><path d="M256.42,57.67l-.13.13h.13S256.67,57.41,256.42,57.67Z" style="fill:#fff"/><path d="M258.43,54.58c-.09,0,0,0,0,0Z" style="fill:#fff"/><path d="M263.24,48.91a3.19,3.19,0,0,0-.77.91h.38C262.72,49.43,263.37,49.43,263.24,48.91Z" style="fill:#fff"/><path d="M264.78,48.66h-.38C264.65,48.79,264.53,48.79,264.78,48.66Z" style="fill:#fff"/><path d="M265.17,47.63l.39-.13c0-.13,0-.13.38-.26.26-.38.39-.38.39-.51C265.81,46.86,265.17,47.37,265.17,47.63Z" style="fill:#fff"/><path d="M265.94,48.53a.13.13,0,0,0,.13-.13C265.94,48.4,265.68,48.66,265.94,48.53Z" style="fill:#fff"/><path d="M262.34,49.82c-.26,0,0,0-.26.12l-.51.26v.26l-.39.13-.13.13c.13.25,0,.25,0,.38C262,50.46,261.31,50.72,262.34,49.82Z" style="fill:#fff"/><path d="M260.15,51.88l-.52.38c-.13.52,0,.52.13.26s0-.13.13-.26a.13.13,0,0,1,.13-.13c.13-.13.13,0,.13-.13C260.41,51.75,260.28,51.88,260.15,51.88Z" style="fill:#fff"/><path d="M259.89,54.06c.13,0,.13-.13.26-.13-.13-.12,0-.12,0-.38C259.89,53.93,259.89,53.81,259.89,54.06Z" style="fill:#fff"/><path d="M326.31,47.11c-1.29-2.31-3.86-3.34-6.3-4.24a15.24,15.24,0,0,0-2.58-.78,8.34,8.34,0,0,0-2.45-.38,17.76,17.76,0,0,0-8.1,2.7c-.65.52-1.55.9-2.07,1.42a43.89,43.89,0,0,1-3.73,3.47c-.64-2.44.13-3.6-.77-5.66-.13-.52,0,0-.39-.77l-.9-1.68c-1.8-1.67-1.93-2.06-4.5-2.83-.65-.26-.13-.26-1.16-.26-.13,1.16-.13.9-.9,1.55-.13-1.42-.39-1.42-1.8-1.42a5.45,5.45,0,0,0-.26,1.55c-.52,1.54-1.55,2.7-2.19,4.12a18.41,18.41,0,0,0-1.16,2.83,29.86,29.86,0,0,0-1.16,3.09c-.64.77-.38,1.8-.9,2.7-.26.39-1.41,1.41,0,.9.77-.13.77-.77,1-1.29l.64-1.28c.65-1.29,1.55-3.48,2.58-4.25.64,1.16-.26,2.83-.52,4.12-.38,1.54-.9,2.44-1.41,4L286.68,57a11.29,11.29,0,0,0-1,2.38l-4.25,7.6c-.77,1.15-.52.51-1.16,1.41l-3,4a23.27,23.27,0,0,1-5.41,5.28l-2.19-.39,3-10c.51-2.06.25-1.54,1.15-5l1.68-7.08c1.93-5.66.25-7-4.12-6.69-.52,0-.39-.13-.65.13,0,0,0,.13-.25.13l-.13.13v-.13h-.13c-.64.25-.13,0-.64.13h-.13a.83.83,0,0,1-.65.38l-.38.13h-.13l-.13.13c-.9.39,0,0-1,.26-.39.13-.13.13-.39.25s.26,0-.38.39c.13-.26.13,0,.13-.26a10.33,10.33,0,0,0-1.55.9,3.94,3.94,0,0,1-.77.52.45.45,0,0,1-.26.13,1.22,1.22,0,0,0-.38.13l-.65.51h-.13c-.38.26-.38.52-.51.78H262l-.38.38c-.39.39-.39.26-.26.51-.9.78-.26.13-.9.91,0,0,.13,0-.13.13v-.13c-.39.51,0,.25-.39.77a2.66,2.66,0,0,0-.51.9c-.13.13,0,0-.13.26s-.13,0-.26,0-.13.13-.13.26.13-.13-.13.38h-.13c-.12.39,0,0,0,.26,0,0,0,.13-.25.38l-.13.26c-.26.77,0,.13-.64,1.16h-.13l-.13.13.13.13c-.39.9-.26,1-.65,1.41.13.52-.38,1.81-.9,3.61v.13a1.91,1.91,0,0,1-.13.77c-.13.64.52,3.35.39,4-1,2.7-.9,1.16.39,5.15a33.44,33.44,0,0,0,4.11,7.08c-1,.64-3.47,2.7-4.63,2.7-1.67,0-2.57-3.73-2.57-5.28h-.78c.39-1.54.65-1.28.13-2.44-.9-2.83.39-.52-.38-3.86-.13-.9,0-.65.12-1.29v-.26l-.12-.13v-.9c.12-1.93.25.39.25-1.16-.13-.38-.13-.64-.25-.77.51-1.54,0,0,.38-3.73a2.21,2.21,0,0,1,.13-.77c.13.25.52-3.87,1.67-5a.79.79,0,0,0-.12.51,1.76,1.76,0,0,0,.25-1c.13-.51.13-.51.39-.77.13,0,0,.38.26-.13,0-.26-.26.13-.13-.26l.77-1.54h.13c.51-.52.13-.13.26-.52,0-.13,0-.13.13-.25s.12-.13.12-.13c.26-.65.26-.26.39-.65.13-.13-.13.13.13-.38.26.38.13.51.13.77-.13,0-.26.13-.13.13v.13l-.9,1v.25a.13.13,0,0,1-.13.13v.26l-.13.13a18.61,18.61,0,0,0-.77,1.8h-.13l-.52,1.8a4.36,4.36,0,0,1-.12.9,9.06,9.06,0,0,1,.9-2.31l1.41-3.09.78-1.16c.12.13.12,0,.25,0,0-.26,0-.39.13-.52l.52-.64c-.13-.13-.13,0,0-.26.64-.77.38-.25.77-.9.13-.13.25-.26.25-.38.52-.39.39-.13.65-.65a1.86,1.86,0,0,0,.64-.77.45.45,0,0,0,.26-.13c.52-.51.77-.51.77-.77l.52-.39.64-.51c.9-.65.26-.26,1-.9a7.59,7.59,0,0,0,1.16-.9c.77-.52,1-.52,1.54-.91s-.25-.12,0-.51,0-.26.26-.51.77,0,1.16-.13c.9-.39-.39-.52,1-1.16.9-.39.64-.52.64-.52h.39l-.13-.9c-.39-1.41,1-2.57-.13-3.6l-1.67-1.55-.52-.25-1.67-.91a14.58,14.58,0,0,0-5.15-.64c-.77,0-1.54.39-2.7.52l-3,1s-.13,0-.13.12L246.38,43c-.91.78-.39-.38-1,1-.13.38.12,1-1.55,1.54.39,1.16,0,.13.77,1.16-.77.25-.51.51-1.67.25.26,1.29-.52,1.93-1.29,3.09a34.69,34.69,0,0,0-4.24,9.79,6.37,6.37,0,0,1-.26,1.54l-1.29,12.75v.25l.05.21c-.44.55-.77,1-1,1.21-2.57,3.6-4.76,7-8.24,9.4l-.51.51c-2.32,1.8-5.8,3.6-6.7,0l-1.28-7.46a82.35,82.35,0,0,1-.39-10.18L219.34,48a4.76,4.76,0,0,1,1.55-3.73c2.06-2.32,2.83-4.63,4.63-6.69a11.33,11.33,0,0,0,1.93-3.74c1-2.05,3.22-5,3.61-7.59a15,15,0,0,1,1.29-4.51l.9-3.08c.25-.91.51-.65.51-1,0-2.32.26-1.68.77-4.12.52-2.19,2.58-6.57-1.8-11.2A11.09,11.09,0,0,0,227.07,0c-3.61,0-7.34,4.38-9.14,7.08a36.61,36.61,0,0,0-2.7,4.76c.51-.26,1.28,0,1.67-2.57,1.54,1,.64.38,0,1.8l-.77,1.67-1.81.78L213,16.09a120.31,120.31,0,0,0-6,19.82c-1,4.9-1.93,9.66-2.71,14.55-1.41,7.85-2.06,21.5-.64,29.48.9,5,1.29,7.85,5.66,10.94a10.31,10.31,0,0,0,3.48,1.93l1,.26,1.93.77c11.25-.7,16.12-5.57,20.93-14a18.94,18.94,0,0,0,1.6,4.82,13.39,13.39,0,0,0,5.4,5.66,18.55,18.55,0,0,0,9.66,1.16,16.2,16.2,0,0,1,1.67-.64h.9c.77-.13,1.29-.77,2.06-1a2.19,2.19,0,0,0,.64-.13,16.13,16.13,0,0,0,3.87-1.67c2.7-1.29,3-3,4.11-3.73a11.63,11.63,0,0,1,3.35-.78h.26c1.93,0,3.35-1.16,4.63-2.44,2.71-2.32,1.55-.39,4.25-3.87l3.73-4.89.27-.44-.4,3a15.2,15.2,0,0,1,0,2.44,12.11,12.11,0,0,0,0,4.77c.13,1.54-.77,5.15,1.42,7.59l.9.9c1.16,1,2.58,1.16,3.86,1.8.65.39,1.29.13,2.06.65s.9,1.8,3.87.39c2.31-1.17,2.18-3.48,2.57-5,.51-1.28,0-3.6.39-4.76s.12-1.16,1.54-1.29c0-2.57.13-1.54-.51-3.6-.39-1.16,1.15-8.88,1.54-10.43s.77-1,1.16-2.83c.38-1.16.64-2.32.9-3.35a8.48,8.48,0,0,1,1.16-2.7l.9-.9a.13.13,0,0,1,.13-.13l.9-1.41c1.16-1.81,2.83-4.38,4.63-5.67,3.61-2.7,4.51-5.28,9.53-2.19,3.22,1.93.77,3.09.9,6.18a4.94,4.94,0,0,0,2.7.26c1.93-.26,1.68-.39,2.58-1.8l.77-1.16C327.86,50.07,327.6,49.69,326.31,47.11ZM225.91,2.32l-1.16,2.06A1.71,1.71,0,0,1,225.91,2.32Zm-3.09,0c1.42,1,.64.38-.13,1.8l-.77,1.67-.77-.9C221.66,4.63,222.43,4.76,222.82,2.32Zm0,3.47-1.29,2.06C221.4,6.82,221.66,6.31,222.82,5.79Zm-.51,24c.25-1.29.64-1.81,1-3.35l.91-3.35,1.15-3.22c.39-1.54,2.84-8.36,4.12-9.13-.38,4.76-.9,4.5-1.15,7.59a31.4,31.4,0,0,1-2.06,8.11c0,.13-.26.51-.26.77-.65,1.55-3.86,9-4.89,10A37.07,37.07,0,0,1,222.31,29.74Zm-3.48-18.41c-.13-1,.26-1.54,1.29-2.06Zm.77-5.54c1.55,1,.65.39,0,1.81l-.77,1.67h-.9Zm49.17,52.26-.12,1.55v.13c-.26,1.93.25.77-.39,2.32l-3.48,9.78c.39-2.06-1.8-4-1.41-6a20.14,20.14,0,0,1,2.31-6.05c.78-1.16,2.32-1.93,3.09-3.09l.39-.77A5.45,5.45,0,0,1,268.77,58.05Z" style="fill:#fff"/></g></g></svg>